<svg id="visual" viewBox="0 0 900 600" width="900" height="600" xmlns="http://www.w3.org/2000/svg" xmlns:xlink="http://www.w3.org/1999/xlink" version="1.1"><g transform="translate(507.7533858737165 353.47182522124064)"><path d="M83.1 -113.2C110.5 -76.1 137.5 -52.5 139.8 -26.6C142.1 -0.6 119.8 27.8 99.3 51.8C78.9 75.7 60.3 95.2 37.7 103.3C15 111.5 -11.6 108.4 -51.6 108.4C-91.6 108.3 -145 111.4 -187.8 85.2C-230.7 59 -263.1 3.4 -253.9 -44.1C-244.7 -91.7 -194 -131.3 -144.8 -164.6C-95.6 -197.9 -47.8 -224.9 -10 -213.1C27.9 -201.2 55.7 -150.4 83.1 -113.2" fill="#E6E5E5"></path></g></svg>