<svg width="2320" height="815" viewBox="0 0 2320 815" fill="none" xmlns="http://www.w3.org/2000/svg">
<g clip-path="url(#clip0_13302_571)" filter="url(#filter0_f_13302_571)">
<path opacity="0.15" d="M2068.6 350.096C2115.14 397.821 2152.89 480.793 2083.33 539.37C2076.16 545.409 2008.86 600.201 1907.64 593.397C1784.36 585.11 1759.08 495.412 1623.03 472.127C1475.69 446.91 1389.22 532.231 1317.26 506.021C1232.18 475.027 1221.74 307.877 1375.74 236.237C1561.26 149.933 1943.45 221.768 2068.6 350.096Z" fill="#EBC136"/>
<path opacity="0.15" d="M908.952 596.845C952.093 572.306 999.104 522.868 969.908 472.86C966.898 467.704 938.141 420.577 870.666 409.227C788.479 395.403 747.725 451.287 653.183 445.465C550.798 439.161 517.901 368.652 464.127 374.846C400.541 382.169 348.371 492.064 428.769 564.045C525.623 650.758 792.948 662.827 908.952 596.845Z" fill="#EBC136"/>
<path opacity="0.15" d="M1162.19 458.197C1140.82 431.058 1118.98 378.844 1137.7 330.768C1139.63 325.811 1157.94 280.581 1194.55 273.427C1239.14 264.713 1257.24 322.97 1307.89 323.001C1362.74 323.034 1384.75 254.739 1412.95 264.237C1446.29 275.467 1467.01 388.3 1419.65 455.131C1362.59 535.641 1219.66 531.171 1162.19 458.197Z" fill="#EBC136"/>
<path opacity="0.15" d="M1145.37 397.606C1168.73 383.865 1194.2 356.211 1178.44 328.293C1176.82 325.415 1161.29 299.106 1124.8 292.813C1080.35 285.149 1058.26 316.4 1007.12 313.215C951.732 309.765 933.987 270.397 904.891 273.895C870.486 278.032 842.182 339.466 885.623 379.624C937.955 428 1082.57 434.552 1145.37 397.606Z" fill="#EBC136"/>
<path opacity="0.15" d="M2151.14 363.587C2176.33 342.589 2204.03 300.702 2187.7 259.137C2186.02 254.851 2169.92 215.693 2131.06 206.898C2083.74 196.184 2059.59 243.403 2005.03 239.519C1945.95 235.314 1927.71 176.622 1896.58 182.372C1859.77 189.17 1828.44 281.731 1874.1 341.157C1929.11 412.747 2083.41 420.049 2151.14 363.587Z" fill="#8047F8"/>
<path opacity="0.15" d="M2167.79 530.207C2187.37 544.299 2208.82 572.507 2195.89 600.683C2194.55 603.588 2181.8 630.135 2151.41 636.248C2114.39 643.693 2095.74 611.865 2053.1 614.723C2006.93 617.817 1992.43 657.582 1968.14 653.826C1939.41 649.385 1915.34 586.927 1951.27 546.548C1994.56 497.906 2115.12 492.314 2167.79 530.207Z" fill="#8047F8"/>
<path opacity="0.15" d="M502.968 220.147C520.426 248.102 537.684 301.425 520.688 349.596C518.935 354.562 502.361 399.865 471.188 406.227C433.219 413.976 419.271 354.632 376.378 353.393C329.926 352.051 309.674 420.591 286.017 410.314C258.042 398.162 243.171 283.564 284.861 217.109C335.084 137.053 456.026 144.981 502.968 220.147Z" fill="#EBC136"/>
<path opacity="0.15" d="M1394.04 601.1C1358.08 576.369 1323.14 526.768 1359.9 477.032C1363.69 471.905 1399.49 425.041 1465 414.099C1544.79 400.771 1572.65 456.768 1662.56 451.496C1759.92 445.787 1803.98 375.615 1853.34 382.101C1911.71 389.77 1940.22 499.728 1851.27 571.099C1744.1 657.078 1490.71 667.601 1394.04 601.1Z" fill="#EBC136"/>
<path opacity="0.15" d="M1291.84 558.112C1321.89 533.631 1353.4 486.524 1329.4 443.137C1326.92 438.664 1303.4 397.846 1253.65 391.378C1193.06 383.5 1166.46 436.06 1097.32 436.071C1022.44 436.083 994.611 374.451 955.804 383.011C909.916 393.134 877.975 494.939 940.46 555.258C1015.74 627.924 1211.01 623.939 1291.84 558.112Z" fill="#8047F8"/>
<path opacity="0.15" d="M1357.88 225.439C1414.19 239.158 1474 264.635 1431.3 286.243C1426.9 288.471 1384.99 308.767 1293.49 310.372C1182.03 312.327 1131.08 284.2 1003.57 281.774C865.476 279.146 816.39 310.061 744.516 304.273C659.527 297.429 596.947 243.636 710 214.613C846.192 179.651 1206.45 188.549 1357.88 225.439Z" fill="#8047F8"/>
<path opacity="0.15" d="M431.026 536.659C457.535 508.155 485.486 453.681 464.797 404.266C462.664 399.171 442.375 352.694 398.861 345.985C345.861 337.813 322.168 398.471 261.616 399.468C196.041 400.549 172.145 330.262 138.096 340.633C97.8341 352.896 69.0864 470.106 123.345 538.393C188.71 620.656 359.745 613.304 431.026 536.659Z" fill="#8047F8"/>
</g>
<defs>
<filter id="filter0_f_13302_571" x="0" y="-116" width="2320" height="1020" filterUnits="userSpaceOnUse" color-interpolation-filters="sRGB">
<feFlood flood-opacity="0" result="BackgroundImageFix"/>
<feBlend mode="normal" in="SourceGraphic" in2="BackgroundImageFix" result="shape"/>
<feGaussianBlur stdDeviation="80" result="effect1_foregroundBlur_13302_571"/>
</filter>
<clipPath id="clip0_13302_571">
<rect width="2000" height="700" fill="white" transform="translate(160 44)"/>
</clipPath>
</defs>
</svg>
